<?xml version="1.0" standalone="no"?>
<!DOCTYPE svg PUBLIC "-//W3C//DTD SVG 20010904//EN" "http://www.w3.org/TR/2001/REC-SVG-20010904/DTD/svg10.dtd">
<svg xmlns="http://www.w3.org/2000/svg" version="1.0" width="512" height="512" viewBox="0 0 512.000000 512.000000" preserveAspectRatio="xMidYMid meet">

<g transform="translate(0.000000,512.000000) scale(0.100000,-0.100000)" fill="#000000" stroke="none">
<path d="M3084 5111 c-53 -14 -135 -64 -170 -105 -52 -61 -76 -136 -73 -228 l3 -77 -254 -286 c-140 -158 -260 -297 -267 -308 -21 -37 -15 -74 16 -109 24 -27 36 -33 69 -33 26 0 48 7 63 20 12 11 123 134 247 273 124 139 228 249 232 245 15 -16 1332 -2304 1329 -2307 -6 -5 -2206 -476 -2222 -476 -7 0 -97 145 -199 323 -102 177 -242 420 -311 539 l-126 217 172 193 c339 381 317 354 317 399 0 66 -67 114 -129 93 -15 -6 -134 -130 -287 -302 l-260 -292 -440 -254 c-358 -206 -449 -263 -495 -308 -124 -125 -170 -319 -114 -483 9 -27 98 -192 198 -365 206 -359 245 -408 363 -466 102 -51 199 -64 306 -42 67 14 107 32 231 103 l151 86 545 -545 c344 -342 561 -551 586 -564 109 -54 212 -65 317 -32 248 76 361 363 231 588 -15 26 -116 137 -224 247 l-198 200 59 32 c113 63 170 149 170 258 0 86 -31 144 -124 234 -42 40 -75 75 -74 76 4 2 1561 336 1623 348 48 9 52 8 102 -26 167 -113 398 -50 481 131 34 75 40 161 15 232 -10 30 -139 263 -286 517 -147 254 -267 466 -267 472 0 5 19 20 43 34 59 35 124 107 153 171 76 167 40 343 -95 468 -129 120 -311 140 -469 53 l-42 -24 -54 92 c-30 51 -154 265 -276 477 -122 212 -238 402 -258 423 -73 75 -208 114 -308 88z m142 -210 c24 -15 186 -288 773 -1305 409 -708 748 -1299 753 -1314 28 -73 -34 -162 -113 -162 -53 0 -89 22 -121 74 -35 56 -1441 2493 -1462 2533 -25 49 -21 106 11 143 44 53 104 65 159 31z m1079 -1010 c148 -67 161 -270 24 -356 -23 -15 -45 -23 -50 -18 -7 7 -82 134 -168 286 l-33 57 54 25 c63 29 118 31 173 6z m-2746 -1730 c162 -280 294 -513 294 -518 0 -7 -518 -312 -733 -430 -80 -45 -89 -47 -160 -48 -62 0 -84 5 -125 27 -27 14 -62 39 -76 55 -32 33 -367 610 -385 662 -33 91 -3 209 68 278 26 25 193 127 428 262 212 121 387 221 390 221 3 0 137 -229 299 -509z m1003 -637 c205 -188 206 -198 37 -292 l-55 -31 -169 169 c-93 93 -167 171 -165 173 6 5 229 54 252 56 9 0 54 -33 100 -75z m-95 -536 c500 -501 503 -505 503 -583 0 -105 -100 -204 -206 -205 -86 0 -111 21 -644 555 -323 323 -501 508 -495 514 15 15 339 200 350 200 6 1 227 -216 492 -481z"/>
<path d="M2080 3819 c-61 -24 -84 -82 -56 -137 20 -38 44 -52 91 -52 50 0 95 44 95 94 0 65 -72 117 -130 95z"/>
</g>
</svg>