<?xml version="1.0" standalone="no"?>
<!DOCTYPE svg PUBLIC "-//W3C//DTD SVG 20010904//EN" "http://www.w3.org/TR/2001/REC-SVG-20010904/DTD/svg10.dtd">
<svg xmlns="http://www.w3.org/2000/svg" version="1.0" width="512" height="512" viewBox="0 0 512.000000 512.000000" preserveAspectRatio="xMidYMid meet">

<g transform="translate(0.000000,512.000000) scale(0.100000,-0.100000)" fill="#000000" stroke="none">
<path d="M3692 4875 c-29 -8 -67 -22 -85 -31 -26 -14 -566 -552 -575 -573 -1 -3 219 -227 488 -496 l491 -490 263 265 c214 215 269 276 294 326 36 72 55 165 46 226 -15 95 -35 121 -348 434 -273 273 -306 304 -356 322 -79 28 -155 34 -218 17z"/>
<path d="M1724 2978 c-990 -991 -1074 -1078 -1102 -1138 -36 -74 -232 -900 -232 -973 1 -119 110 -218 239 -217 59 1 895 214 953 244 43 21 268 240 1132 1099 l1079 1073 -492 489 c-271 270 -496 491 -499 493 -4 1 -489 -481 -1078 -1070z"/>
<path d="M1640 568 c-66 -34 -93 -79 -88 -149 5 -65 32 -109 82 -133 31 -15 173 -16 1566 -16 1393 0 1535 1 1566 16 50 24 77 68 82 133 5 70 -22 115 -88 149 l-44 22 -1516 0 -1516 0 -44 -22z"/>
</g>
</svg>