<?xml version="1.0" standalone="no"?>
<!DOCTYPE svg PUBLIC "-//W3C//DTD SVG 20010904//EN" "http://www.w3.org/TR/2001/REC-SVG-20010904/DTD/svg10.dtd">
<svg xmlns="http://www.w3.org/2000/svg" version="1.0" width="512" height="512" viewBox="0 0 512.000000 512.000000" preserveAspectRatio="xMidYMid meet">

<g transform="translate(0.000000,512.000000) scale(0.100000,-0.100000)" fill="#000000" stroke="none">
<path d="M421 5024 c-161 -43 -283 -167 -326 -329 -13 -52 -15 -265 -15 -1767 0 -1227 3 -1722 11 -1760 34 -158 155 -291 310 -339 58 -18 105 -19 934 -19 l873 0 -25 67 c-45 125 -66 246 -67 398 -1 77 3 164 7 194 l8 53 -25 -28 -24 -29 -228 -3 c-313 -4 -314 -4 -314 171 0 107 1 109 29 138 l29 29 236 0 236 0 31 -28 c29 -26 32 -35 39 -113 4 -46 8 -74 9 -62 2 38 72 226 117 317 25 49 74 134 108 190 l64 101 -22 30 c-18 26 -21 44 -21 126 0 155 26 179 193 179 l100 0 131 151 131 150 -37 45 -37 44 -206 0 c-228 0 -240 3 -266 66 -17 39 -18 143 -3 197 7 26 21 44 42 57 29 18 52 20 233 20 l201 0 14 26 c7 14 39 50 70 79 l57 52 -74 74 c-79 78 -119 145 -132 219 l-8 45 -1082 5 -1082 5 -27 28 -28 27 -3 235 c-3 197 -1 239 13 264 33 65 -43 61 1242 61 1150 0 1169 0 1201 -20 42 -26 52 -54 52 -143 l0 -72 77 0 c43 0 94 -4 113 -8 33 -8 36 -6 54 28 39 73 178 175 239 175 18 0 19 10 15 173 l-3 172 -37 78 c-63 131 -165 216 -305 252 -85 22 -2740 21 -2822 -1z m793 -1764 c46 -17 66 -65 66 -157 0 -91 -8 -121 -41 -152 -22 -20 -33 -21 -262 -21 l-239 0 -29 29 c-28 29 -29 32 -29 133 1 111 10 141 51 164 29 16 443 20 483 4z m873 -10 c42 -25 57 -80 51 -184 -5 -74 -7 -81 -37 -108 l-31 -28 -236 0 -236 0 -29 29 c-28 29 -29 32 -29 136 0 175 -1 174 295 175 201 0 223 -2 252 -20z m-871 -725 c46 -19 64 -63 64 -160 0 -98 -18 -141 -66 -161 -29 -12 -77 -15 -256 -12 l-220 3 -29 33 c-28 31 -29 36 -29 136 0 90 3 107 21 130 12 15 31 32 43 36 11 5 115 9 229 9 161 1 216 -2 243 -14z m852 4 c54 -19 67 -51 67 -164 0 -116 -14 -148 -74 -166 -22 -6 -116 -9 -249 -7 l-214 3 -29 33 c-28 31 -29 36 -29 136 0 90 3 107 21 130 12 15 31 32 43 36 31 13 427 12 464 -1z m-822 -760 c27 -29 29 -35 32 -127 3 -84 0 -102 -18 -130 -11 -18 -32 -37 -46 -42 -14 -6 -122 -10 -240 -10 -291 0 -294 2 -294 181 0 98 1 101 29 130 l29 29 239 0 239 0 30 -31z"/>
<path d="M3582 4187 c-49 -15 -107 -77 -126 -134 -33 -98 -90 -122 -188 -78 -51 23 -70 27 -116 22 -108 -11 -185 -97 -185 -206 0 -76 19 -109 131 -223 l96 -98 461 0 461 0 96 98 c112 115 132 147 132 222 1 108 -78 196 -186 207 -46 5 -65 1 -116 -22 -98 -44 -155 -20 -188 78 -38 113 -155 172 -272 134z"/>
<path d="M3135 3298 c-50 -18 -92 -55 -115 -103 -47 -97 -8 -221 85 -269 39 -21 52 -21 557 -21 l516 0 44 30 c60 43 88 96 88 168 0 95 -50 166 -139 196 -45 15 -993 14 -1036 -1z"/>
<path d="M2992 2647 c-270 -310 -476 -594 -583 -804 -245 -482 -157 -1007 233 -1379 188 -180 447 -310 718 -361 132 -24 457 -24 588 0 278 52 522 173 716 357 363 344 468 808 287 1275 -80 208 -302 530 -614 889 -117 135 -117 135 -149 125 -43 -12 -1023 -12 -1066 0 -32 10 -33 9 -130 -102z m722 -392 c22 -20 26 -32 26 -79 l0 -54 53 -18 c73 -24 129 -58 182 -111 46 -47 95 -132 95 -165 0 -37 -29 -76 -65 -88 -44 -15 -81 1 -111 50 -63 99 -118 138 -210 147 -99 10 -207 -36 -238 -102 -25 -53 -21 -118 10 -155 39 -46 89 -67 236 -100 215 -48 318 -114 376 -238 39 -83 38 -194 -1 -274 -49 -100 -152 -170 -299 -202 -26 -6 -28 -10 -28 -59 -1 -55 -11 -76 -47 -95 -34 -19 -69 -14 -100 12 -22 19 -29 35 -33 81 l-5 57 -62 20 c-156 47 -295 207 -285 327 5 54 67 89 125 69 22 -8 36 -25 57 -72 31 -69 77 -118 133 -141 61 -25 153 -30 226 -11 123 31 167 79 159 168 -9 91 -81 141 -258 178 -224 48 -321 107 -379 230 -21 45 -26 69 -26 135 1 158 88 272 250 331 l60 22 5 57 c4 46 11 62 33 81 37 32 86 32 121 -1z"/>
</g>
</svg>