<?xml version="1.0" standalone="no"?>
<!DOCTYPE svg PUBLIC "-//W3C//DTD SVG 20010904//EN" "http://www.w3.org/TR/2001/REC-SVG-20010904/DTD/svg10.dtd">
<svg xmlns="http://www.w3.org/2000/svg" version="1.0" width="512" height="512" viewBox="0 0 512.000000 512.000000" preserveAspectRatio="xMidYMid meet">

<g transform="translate(0.000000,512.000000) scale(0.100000,-0.100000)" fill="#000000" stroke="none">
<path d="M2425 4509 c-87 -13 -209 -46 -295 -80 -672 -268 -973 -1098 -640 -1761 125 -247 346 -455 611 -572 l56 -25 57 117 c32 64 71 134 88 155 16 21 28 40 27 41 -2 1 -35 13 -74 25 -224 74 -435 250 -435 363 0 38 57 140 112 202 61 69 169 141 261 175 71 26 75 26 399 29 369 4 396 0 528 -65 151 -76 303 -266 285 -360 -23 -129 -196 -264 -447 -348 -58 -19 -115 -35 -127 -35 -26 0 -26 -7 0 -45 11 -16 49 -87 85 -157 35 -71 67 -128 70 -128 17 0 191 75 246 106 219 124 395 306 508 525 99 192 140 364 140 584 0 152 -18 272 -60 397 -150 448 -528 772 -994 853 -96 16 -301 18 -401 4z m294 -360 c123 -28 230 -110 285 -219 117 -235 31 -492 -203 -608 -73 -36 -78 -37 -185 -37 -103 1 -116 3 -179 32 -40 19 -91 55 -126 88 -249 238 -139 660 194 741 62 15 156 17 214 3z"/>
<path d="M2516 3980 c-58 -23 -119 -79 -148 -135 -29 -56 -35 -149 -13 -216 35 -104 151 -189 260 -189 59 0 131 29 180 72 149 132 119 369 -59 460 -59 30 -157 34 -220 8z"/>
<path d="M2338 3010 c-143 -24 -245 -80 -308 -167 -22 -31 -40 -62 -40 -69 0 -6 27 -37 61 -68 66 -62 201 -132 304 -160 295 -78 645 -10 824 159 77 74 77 79 -18 174 -69 69 -127 104 -214 127 -58 15 -523 18 -609 4z"/>
<path d="M1095 2471 c-68 -16 -84 -38 -177 -231 l-91 -187 -191 -27 c-105 -16 -205 -34 -221 -41 -41 -17 -83 -68 -91 -111 -13 -71 6 -102 161 -253 94 -91 145 -148 145 -162 0 -11 -14 -101 -31 -199 -20 -115 -29 -192 -25 -215 14 -74 98 -134 171 -122 18 3 111 47 206 98 l173 93 192 -99 c175 -89 195 -98 233 -92 56 7 105 47 126 101 17 43 16 50 -6 177 l-23 133 -52 59 c-118 131 -119 314 -4 440 58 63 118 95 208 109 37 6 71 15 76 19 19 17 -62 37 -248 63 -105 15 -191 28 -193 29 -1 2 -41 82 -87 178 -84 173 -117 220 -166 234 -45 12 -55 13 -85 6z"/>
<path d="M3930 2463 c-41 -16 -78 -72 -156 -234 l-86 -176 -191 -27 c-187 -28 -257 -45 -257 -64 0 -5 29 -13 64 -17 287 -30 410 -359 211 -565 -43 -45 -43 -46 -65 -178 -12 -73 -19 -145 -15 -160 18 -72 96 -129 166 -119 21 3 113 46 206 96 94 50 174 91 180 91 6 0 87 -41 181 -90 94 -50 184 -93 201 -96 75 -15 168 55 177 133 3 21 -11 121 -30 223 l-34 185 153 155 c163 165 176 186 160 260 -9 42 -58 96 -98 109 -18 5 -115 22 -217 36 -102 15 -186 30 -188 35 -2 4 -40 84 -86 177 -100 201 -121 225 -203 230 -32 1 -65 0 -73 -4z"/>
<path d="M2495 2296 c-54 -25 -73 -53 -170 -253 -52 -108 -96 -198 -98 -199 -1 -1 -101 -17 -221 -34 -121 -17 -231 -38 -245 -45 -77 -40 -111 -130 -81 -212 6 -15 85 -100 175 -188 l164 -160 -38 -220 c-40 -232 -40 -270 -3 -320 27 -37 85 -65 132 -65 35 0 81 20 247 106 l203 105 206 -107 c198 -102 208 -106 258 -102 91 8 146 68 146 160 0 24 -16 133 -35 243 l-35 200 164 160 c91 88 170 173 175 188 17 45 13 106 -10 147 -35 63 -70 75 -315 111 l-222 32 -96 197 c-114 232 -138 261 -218 267 -32 2 -65 -2 -83 -11z"/>
</g>
</svg>