<?xml version="1.0" standalone="no"?>
<!DOCTYPE svg PUBLIC "-//W3C//DTD SVG 20010904//EN" "http://www.w3.org/TR/2001/REC-SVG-20010904/DTD/svg10.dtd">
<svg xmlns="http://www.w3.org/2000/svg" version="1.0" width="512" height="512" viewBox="0 0 512.000000 512.000000" preserveAspectRatio="xMidYMid meet">

<g transform="translate(0.000000,512.000000) scale(0.100000,-0.100000)" fill="#000000" stroke="none">
<path d="M1300 4953 c-190 -21 -408 -101 -565 -206 -83 -56 -108 -77 -203 -170 -172 -169 -293 -394 -348 -647 -18 -81 -19 -153 -19 -1370 0 -1217 1 -1289 19 -1370 113 -515 491 -893 1006 -1006 81 -18 153 -19 1370 -19 1217 0 1289 1 1370 19 515 113 893 491 1006 1006 18 81 19 153 19 1370 0 1428 4 1338 -67 1540 -132 375 -435 673 -803 794 -197 64 -96 60 -1485 61 -696 1 -1281 0 -1300 -2z m42 -1526 c48 -21 869 -768 884 -804 18 -41 18 -85 0 -126 -16 -39 -839 -785 -889 -806 -41 -17 -111 -9 -145 16 -64 47 -88 126 -60 193 11 25 116 125 361 345 190 171 346 312 346 315 0 3 -156 144 -346 315 -350 313 -373 338 -373 404 0 113 120 193 222 148z m2584 -1453 c53 -39 69 -71 69 -134 0 -63 -16 -95 -69 -134 -27 -21 -39 -21 -704 -24 -457 -2 -689 0 -714 8 -101 29 -140 168 -71 251 51 61 25 59 775 56 676 -2 687 -2 714 -23z"/>
</g>
</svg>